<svg width="36" height="36" viewBox="0 0 36 36" fill="none" xmlns="http://www.w3.org/2000/svg">
<path d="M18 1.5C8.9025 1.5 1.5 8.9025 1.5 18C1.5 27.0975 8.9025 34.5 18 34.5C27.0975 34.5 34.5 27.0975 34.5 18C34.5 8.9025 27.0975 1.5 18 1.5ZM18 31.5C10.5525 31.5 4.5 25.4475 4.5 18C4.5 10.5525 10.5525 4.5 18 4.5C25.44 4.5 31.5 10.5525 31.5 18C31.5 25.4475 25.44 31.5 18 31.5Z" fill="#C21010"/>
<path d="M19.5 16.5V9C19.5 8.175 18.825 7.5 18 7.5C17.175 7.5 16.5 8.175 16.5 9V16.5H9C8.175 16.5 7.5 17.175 7.5 18C7.5 18.825 8.175 19.5 9 19.5H16.5V27C16.5 27.825 17.175 28.5 18 28.5C18.825 28.5 19.5 27.825 19.5 27V19.5H27C27.825 19.5 28.5 18.825 28.5 18C28.5 17.175 27.825 16.5 27 16.5H19.5Z" fill="#C21010"/>
</svg>
