<svg width="40" height="73" viewBox="0 0 40 73" fill="none" xmlns="http://www.w3.org/2000/svg">
<path fill-rule="evenodd" clip-rule="evenodd" d="M38.6672 71.9324C37.1945 73.3559 34.8127 73.3559 33.3437 71.9324L2.20606 41.7704C1.50906 41.1055 0.95406 40.3053 0.574814 39.4184C0.195568 38.5315 0 37.5765 0 36.6113C0 35.6462 0.195568 34.6912 0.574814 33.8043C0.95406 32.9174 1.50906 32.1172 2.20606 31.4523L33.5691 1.0676C34.2809 0.388546 35.2235 0.00687072 36.2055 9.18619e-05C37.1875 -0.00668699 38.1353 0.361939 38.8563 1.03111C39.2135 1.36156 39.4993 1.7621 39.696 2.20791C39.8927 2.65373 39.9961 3.13533 39.9999 3.62289C40.0036 4.11046 39.9076 4.59361 39.7178 5.04242C39.528 5.49123 39.2484 5.89614 38.8963 6.23209L10.1914 34.0327C9.84259 34.3652 9.56484 34.7654 9.37505 35.209C9.18526 35.6526 9.08738 36.1304 9.08738 36.6132C9.08738 37.0959 9.18526 37.5737 9.37505 38.0173C9.56484 38.4609 9.84259 38.8611 10.1914 39.1936L38.6672 66.7752C39.0159 67.1074 39.2936 67.5073 39.4833 67.9506C39.6731 68.3939 39.7709 68.8713 39.7709 69.3538C39.7709 69.8363 39.6731 70.3138 39.4833 70.7571C39.2936 71.2004 39.0159 71.6003 38.6672 71.9324Z" fill="#C21010"/>
</svg>
