<svg width="40" height="73" viewBox="0 0 40 73" fill="none" xmlns="http://www.w3.org/2000/svg">
<path fill-rule="evenodd" clip-rule="evenodd" d="M1.33277 71.666C2.80548 73.0842 5.18725 73.0842 6.65632 71.666L37.7939 41.6157C38.4909 40.9533 39.0459 40.156 39.4252 39.2724C39.8044 38.3888 40 37.4373 40 36.4757C40 35.5142 39.8044 34.5627 39.4252 33.6791C39.0459 32.7955 38.4909 31.9982 37.7939 31.3358L6.43087 1.06365C5.71907 0.387107 4.77646 0.00684527 3.79447 9.15217e-05C2.81247 -0.00666223 1.86472 0.360598 1.14369 1.02729C0.7865 1.35652 0.500703 1.75557 0.303995 2.19973C0.107287 2.6439 0.00385546 3.12372 0.000105744 3.60948C-0.00364397 4.09523 0.0923678 4.57659 0.282196 5.02374C0.472023 5.47089 0.751626 5.87431 1.10369 6.20901L29.8086 33.9067C30.1574 34.2379 30.4352 34.6367 30.6249 35.0786C30.8147 35.5206 30.9126 35.9966 30.9126 36.4776C30.9126 36.9586 30.8147 37.4345 30.6249 37.8765C30.4352 38.3185 30.1574 38.7172 29.8086 39.0484L1.33277 66.5279C0.98409 66.8588 0.706416 67.2573 0.516665 67.6989C0.326914 68.1406 0.229059 68.6163 0.229059 69.097C0.229059 69.5777 0.326914 70.0534 0.516665 70.495C0.706416 70.9367 0.98409 71.3351 1.33277 71.666Z" fill="#C21010"/>
</svg>
