<svg width="56" height="56" viewBox="0 0 56 56" fill="none" xmlns="http://www.w3.org/2000/svg">
<path d="M48.7668 4.66663H7.23341C6.55269 4.66663 5.89985 4.93704 5.41851 5.41839C4.93716 5.89973 4.66675 6.55257 4.66675 7.23329V48.7666C4.66675 49.1037 4.73314 49.4374 4.86212 49.7488C4.99111 50.0603 5.18017 50.3432 5.41851 50.5815C5.65684 50.8199 5.93979 51.0089 6.25119 51.1379C6.5626 51.2669 6.89636 51.3333 7.23341 51.3333H29.5868V33.25H23.5201V26.25H29.5868V21C29.4611 19.7674 29.6066 18.5223 30.0131 17.3519C30.4196 16.1815 31.0772 15.1142 31.9398 14.2249C32.8025 13.3356 33.8492 12.6458 35.0067 12.2038C36.1641 11.7619 37.4043 11.5785 38.6401 11.6666C40.4562 11.6555 42.2714 11.7489 44.0767 11.9466V18.2466H40.3667C37.4268 18.2466 36.8667 19.6466 36.8667 21.6766V26.18H43.8667L42.9567 33.18H36.8667V51.3333H48.7668C49.1038 51.3333 49.4376 51.2669 49.749 51.1379C50.0604 51.0089 50.3433 50.8199 50.5817 50.5815C50.82 50.3432 51.0091 50.0603 51.138 49.7488C51.267 49.4374 51.3334 49.1037 51.3334 48.7666V7.23329C51.3334 6.89623 51.267 6.56247 51.138 6.25107C51.0091 5.93967 50.82 5.65672 50.5817 5.41839C50.3433 5.18005 50.0604 4.99099 49.749 4.862C49.4376 4.73301 49.1038 4.66663 48.7668 4.66663Z" fill="white"/>
</svg>
