<svg width="70" height="70" viewBox="0 0 70 70" fill="none" xmlns="http://www.w3.org/2000/svg">
<rect x="11.051" y="11.0356" width="47.438" height="47.4389" rx="5.5" fill="#DFDFDE" stroke="black"/>
<rect width="49.348" height="49.6474" rx="10" transform="matrix(0.704853 -0.709354 0.70934 0.704866 0 35.0051)" stroke="black"/>
<rect x="1.41419" y="-0.00448769" width="46.2404" height="46.2404" rx="9" transform="matrix(0.704853 -0.709354 0.70934 0.704866 1.28362 36.0685)" stroke="#C21010" stroke-width="2"/>
<mask id="mask0_38_23" style="mask-type:alpha" maskUnits="userSpaceOnUse" x="15" y="15" width="39" height="39">
<rect x="16.1836" y="16.1672" width="37.174" height="37.1747" fill="#D9D9D9" stroke="black" stroke-width="0.5"/>
</mask>
<g mask="url(#mask0_38_23)">
<path d="M40.763 20.6692L40.8595 20.4386L40.763 20.6692C42.6225 21.4477 44.2374 22.5203 45.61 23.8868C46.9828 25.2535 48.0615 26.8592 48.8461 28.7061C49.6289 30.5488 50.0213 32.5378 50.0213 34.676C50.0213 36.8162 49.6289 38.8179 48.8457 40.6837C48.0609 42.5532 46.982 44.1753 45.6093 45.5524C44.2363 46.9297 42.621 48.0167 40.7611 48.8133C38.9059 49.6078 36.9067 50.0061 34.7607 50.0061C32.6274 50.0061 30.6327 49.6079 28.7738 48.8132C26.9106 48.0167 25.2948 46.9297 23.924 45.5525C22.5535 44.1755 21.4763 42.5534 20.6927 40.6838C19.9106 38.8179 19.5188 36.8192 19.5188 34.6854C19.5188 32.5388 19.9107 30.5458 20.6923 28.7037C21.4757 26.8572 22.5527 25.2519 23.9234 23.8856C25.2937 22.5195 26.9091 21.4473 28.7719 20.669C30.6312 19.8922 32.6267 19.5029 34.7607 19.5029C36.9074 19.5029 38.9073 19.8924 40.763 20.6692ZM34.588 48.3082L34.7663 48.4976L34.9485 48.312C35.8989 47.3434 36.6865 46.2342 37.3112 44.9858C37.935 43.7391 38.4502 42.2636 38.859 40.5622L38.9331 40.2538H38.616H30.983H30.6711L30.739 40.5583C31.096 42.1578 31.5919 43.6012 32.2285 44.8867C32.8653 46.1728 33.6517 47.3137 34.588 48.3082ZM31.471 47.8828L32.1666 48.1214L31.7605 47.5083C31.1026 46.5149 30.5378 45.4468 30.0663 44.3035C29.5952 43.1614 29.2024 41.8773 28.8886 40.4501L28.8454 40.2538H28.6444H22.7419H22.3285L22.5205 40.6199C23.5137 42.5138 24.6851 44.0084 26.0389 45.0942C27.3897 46.1776 29.2039 47.1051 31.471 47.8828ZM37.8189 47.469L37.429 48.0577L38.1024 47.8455C40.0407 47.2348 41.7788 46.3146 43.3147 45.0845C44.8518 43.8535 46.0931 42.3657 47.0377 40.6229L47.2377 40.2538H46.8179H40.9546H40.7579L40.7116 40.4449C40.3715 41.8476 39.9684 43.1208 39.5028 44.2654C39.0379 45.4083 38.4766 46.476 37.8189 47.469ZM21.7768 38.3204L21.8309 38.4973H22.0159H28.2164H28.4951L28.4649 38.2201C28.387 37.5059 28.3418 36.8722 28.3289 36.3185C28.3159 35.7578 28.3094 35.2103 28.3094 34.676C28.3094 34.0383 28.3224 33.4671 28.3483 32.9621C28.3741 32.459 28.4258 31.8895 28.5038 31.2529L28.5381 30.9725H28.2556H22.0159H21.8309L21.7768 31.1493C21.5779 31.7993 21.4433 32.3801 21.3756 32.8904C21.3083 33.3972 21.2753 33.993 21.2753 34.676C21.2753 35.3594 21.3084 35.9737 21.3753 36.5182C21.4428 37.0678 21.5773 37.6688 21.7768 38.3204ZM30.3235 38.2826L30.3542 38.4973H30.571H39.028H39.2483L39.276 38.2787C39.381 37.4518 39.4473 36.7799 39.4739 36.2651C39.5003 35.7545 39.5135 35.2248 39.5135 34.676C39.5135 34.1531 39.5003 33.6494 39.4739 33.1647C39.4472 32.6762 39.381 32.0175 39.276 31.191L39.2483 30.9725H39.028H30.571H30.3542L30.3235 31.1871C30.2054 32.0141 30.1323 32.6743 30.1055 33.1647C30.0791 33.6494 30.0659 34.1531 30.0659 34.676C30.0659 35.2248 30.0791 35.7545 30.1055 36.2651C30.1322 36.7817 30.2053 37.4551 30.3235 38.2826ZM41.0357 38.2228L41.0087 38.4973H41.2845H47.5439H47.7325L47.7843 38.3159C47.9702 37.6653 48.0975 37.0658 48.1648 36.5182C48.2318 35.9737 48.2648 35.3594 48.2648 34.676C48.2648 33.993 48.2318 33.3972 48.1645 32.8904C48.0971 32.3822 47.9697 31.8029 47.7843 31.1538L47.7325 30.9725H47.5439H41.3238H41.0518L41.0747 31.2435C41.1531 32.1717 41.2052 32.875 41.2311 33.3552C41.2571 33.8355 41.27 34.2757 41.27 34.676C41.27 35.2327 41.2506 35.7627 41.2119 36.2659C41.1728 36.7736 41.1141 37.4257 41.0357 38.2228ZM40.6717 29.0219L40.7162 29.2159H40.9153H46.8179H47.2159L47.0431 28.8574C46.1511 27.0068 44.9343 25.4656 43.3927 24.2377C41.8525 23.0108 40.0705 22.1389 38.0502 21.6205L37.4092 21.4561L37.7813 22.0033C38.4386 22.9699 38.9997 24.0113 39.4643 25.1277C39.9287 26.2436 40.3316 27.5411 40.6717 29.0219ZM30.741 28.9034L30.6603 29.2159H30.983H38.6552H38.9618L38.9001 28.9156C38.6074 27.4923 38.1128 26.115 37.4171 24.7842C36.7221 23.4548 35.9006 22.2859 34.952 21.2792L34.7891 21.1063L34.6082 21.2601C33.7386 21.9991 33.0057 22.9645 32.4061 24.1494C31.8075 25.3323 31.2534 26.9193 30.741 28.9034ZM22.517 28.8567L22.3424 29.2159H22.7419H28.6837H28.8875L28.9286 29.0162C29.2162 27.6159 29.5861 26.3689 30.0369 25.274C30.4889 24.1763 31.0511 23.0969 31.724 22.0358L32.0619 21.503L31.4507 21.6598C29.4315 22.1779 27.6658 23.033 26.1578 24.2274C24.6475 25.4237 23.4344 26.9686 22.517 28.8567Z" fill="#C21010" stroke="black" stroke-width="0.5"/>
</g>
</svg>
