<svg width="56" height="56" viewBox="0 0 56 56" fill="none" xmlns="http://www.w3.org/2000/svg">
<path d="M28.0001 22.2133C26.8556 22.2133 25.7368 22.5527 24.7852 23.1885C23.8336 23.8244 23.0919 24.7281 22.6539 25.7855C22.2159 26.8429 22.1013 28.0064 22.3246 29.1289C22.5479 30.2514 23.099 31.2825 23.9083 32.0917C24.7176 32.901 25.7487 33.4522 26.8712 33.6754C27.9937 33.8987 29.1572 33.7841 30.2145 33.3461C31.2719 32.9082 32.1757 32.1665 32.8115 31.2149C33.4474 30.2632 33.7867 29.1445 33.7867 28C33.7867 27.24 33.6371 26.4876 33.3463 25.7855C33.0555 25.0834 32.6292 24.4455 32.0919 23.9082C31.5545 23.3708 30.9166 22.9446 30.2145 22.6538C29.5125 22.363 28.76 22.2133 28.0001 22.2133ZM51.1701 16.4966C51.1578 14.6947 50.826 12.9093 50.1901 11.2233C49.7217 9.98957 48.9971 8.86918 48.064 7.93606C47.1309 7.00294 46.0105 6.2783 44.7767 5.80996C43.0907 5.17404 41.3053 4.84223 39.5034 4.82996C36.4934 4.66663 35.6067 4.66663 28.0001 4.66663C20.3934 4.66663 19.5067 4.66663 16.4967 4.82996C14.6948 4.84223 12.9094 5.17404 11.2234 5.80996C9.98969 6.2783 8.8693 7.00294 7.93618 7.93606C7.00306 8.86918 6.27842 9.98957 5.81008 11.2233C5.17416 12.9093 4.84236 14.6947 4.83008 16.4966C4.66675 19.5066 4.66675 20.3933 4.66675 28C4.66675 35.6066 4.66675 36.4933 4.83008 39.5033C4.8552 41.3115 5.18655 43.1024 5.81008 44.8C6.27635 46.028 7.00038 47.1419 7.93341 48.0666C8.86253 49.0053 9.98532 49.73 11.2234 50.19C12.9094 50.8259 14.6948 51.1577 16.4967 51.17C19.5067 51.3333 20.3934 51.3333 28.0001 51.3333C35.6067 51.3333 36.4934 51.3333 39.5034 51.17C41.3053 51.1577 43.0907 50.8259 44.7767 50.19C46.0148 49.73 47.1376 49.0053 48.0667 48.0666C48.9998 47.1419 49.7238 46.028 50.1901 44.8C50.8254 43.1057 51.1571 41.3127 51.1701 39.5033C51.3334 36.4933 51.3334 35.6066 51.3334 28C51.3334 20.3933 51.3334 19.5066 51.1701 16.4966ZM45.2434 35.1633C45.1685 36.6032 44.8612 38.0215 44.3334 39.3633C43.8804 40.4826 43.207 41.4993 42.3532 42.3531C41.4994 43.2069 40.4827 43.8803 39.3634 44.3333C38.0089 44.8317 36.5827 45.1075 35.1401 45.15C33.2967 45.15 32.8067 45.15 28.0001 45.15C23.1934 45.15 22.7034 45.15 20.8601 45.15C19.4175 45.1075 17.9912 44.8317 16.6367 44.3333C15.4797 43.9033 14.4347 43.2173 13.5801 42.3266C12.7346 41.4895 12.0817 40.4783 11.6667 39.3633C11.1664 38.0102 10.8982 36.5824 10.8734 35.14C10.8734 33.2966 10.8734 32.8066 10.8734 28C10.8734 23.1933 10.8734 22.7033 10.8734 20.86C10.8982 19.4176 11.1664 17.9897 11.6667 16.6366C12.0967 15.4795 12.7827 14.4346 13.6734 13.58C14.5142 12.7391 15.5244 12.0868 16.6367 11.6666C17.9912 11.1682 19.4175 10.8924 20.8601 10.85C22.7034 10.85 23.1934 10.85 28.0001 10.85C32.8067 10.85 33.2967 10.85 35.1401 10.85C36.5827 10.8924 38.0089 11.1682 39.3634 11.6666C40.5205 12.0966 41.5654 12.7826 42.4201 13.6733C43.2655 14.5104 43.9184 15.5216 44.3334 16.6366C44.8318 17.9911 45.1076 19.4173 45.1501 20.86C45.1501 22.7033 45.1501 23.1933 45.1501 28C45.1501 32.8066 45.3134 33.2966 45.2434 35.14V35.1633ZM41.5101 17.8033C41.2323 17.0496 40.7943 16.3651 40.2262 15.7971C39.6582 15.2291 38.9738 14.7911 38.2201 14.5133C37.1852 14.1546 36.0952 13.9808 35.0001 14C33.1801 14 32.6667 14 28.0001 14C23.3334 14 22.8201 14 21.0001 14C19.8994 14.0107 18.8092 14.2161 17.7801 14.6066C17.0379 14.8718 16.3607 15.292 15.7934 15.8391C15.2262 16.3862 14.7819 17.0478 14.4901 17.78C14.1512 18.8191 13.9857 19.907 14.0001 21C14.0001 22.82 14.0001 23.3333 14.0001 28C14.0001 32.6666 14.0001 33.18 14.0001 35C14.0232 36.0994 14.2282 37.1875 14.6067 38.22C14.8846 38.9737 15.3226 39.6581 15.8906 40.2261C16.4586 40.7941 17.143 41.2321 17.8967 41.51C18.8923 41.8761 19.9399 42.0809 21.0001 42.1166C22.8201 42.1166 23.3334 42.1166 28.0001 42.1166C32.6667 42.1166 33.1801 42.1166 35.0001 42.1166C36.1008 42.1059 37.1909 41.9005 38.2201 41.51C38.9738 41.2321 39.6582 40.7941 40.2262 40.2261C40.7943 39.6581 41.2323 38.9737 41.5101 38.22C41.9006 37.1908 42.106 36.1007 42.1167 35C42.1167 33.18 42.1167 32.6666 42.1167 28C42.1167 23.3333 42.1167 22.82 42.1167 21C42.1174 19.8982 41.9117 18.806 41.5101 17.78V17.8033ZM28.0001 36.9133C26.8307 36.9133 25.6727 36.6826 24.5926 36.2344C23.5125 35.7861 22.5315 35.1292 21.7056 34.3012C20.8798 33.4732 20.2255 32.4905 19.7801 31.4092C19.3347 30.3279 19.107 29.1694 19.1101 28C19.1101 26.2361 19.6334 24.5119 20.6139 23.0456C21.5943 21.5793 22.9878 20.4368 24.6178 19.7629C26.2479 19.089 28.0413 18.9138 29.7709 19.2596C31.5006 19.6055 33.0887 20.4567 34.3343 21.7056C35.58 22.9545 36.427 24.5448 36.7683 26.2754C37.1096 28.006 36.9298 29.7989 36.2515 31.4271C35.5733 33.0554 34.4273 34.4459 32.9584 35.4225C31.4895 36.3991 29.764 36.9179 28.0001 36.9133ZM37.3334 20.8366C36.8176 20.782 36.3403 20.5385 35.9933 20.1529C35.6464 19.7673 35.4545 19.267 35.4545 18.7483C35.4545 18.2296 35.6464 17.7293 35.9933 17.3437C36.3403 16.9581 36.8176 16.7146 37.3334 16.66C37.8492 16.7146 38.3266 16.9581 38.6735 17.3437C39.0204 17.7293 39.2124 18.2296 39.2124 18.7483C39.2124 19.267 39.0204 19.7673 38.6735 20.1529C38.3266 20.5385 37.8492 20.782 37.3334 20.8366Z" fill="white"/>
</svg>
