<svg width="32" height="32" viewBox="0 0 32 32" fill="none" xmlns="http://www.w3.org/2000/svg">
<path d="M6.29544 28.5714C6.16394 28.5703 6.03684 28.5239 5.93558 28.44C3.36372 26.3589 1.50012 23.5313 0.601494 20.3466C-0.297135 17.1619 -0.186588 13.7768 0.917908 10.6576C2.0224 7.53841 4.06651 4.83851 6.76867 2.92982C9.47083 1.02113 12.6981 -0.00244627 16.006 6.95816e-05C18.452 -0.00718019 20.8665 0.552184 23.0604 1.63435C23.1959 1.70184 23.2991 1.82041 23.3473 1.96398C23.3955 2.10756 23.3848 2.26441 23.3174 2.40006C23.2845 2.46769 23.2386 2.52816 23.1823 2.57799C23.126 2.62783 23.0604 2.66605 22.9893 2.69048C22.9182 2.7149 22.8429 2.72503 22.7679 2.7203C22.6929 2.71557 22.6195 2.69607 22.552 2.66292C19.2245 1.02829 15.4063 0.697649 11.8475 1.73597C8.28875 2.7743 5.24681 5.10651 3.31945 8.27432C1.44997 11.3479 0.758862 14.9956 1.37446 18.5403C1.99006 22.0851 3.87053 25.2859 6.66673 27.5485C6.72499 27.5961 6.77328 27.6547 6.80885 27.721C6.84441 27.7873 6.86654 27.8599 6.87397 27.9348C6.8814 28.0096 6.87398 28.0852 6.85214 28.1572C6.8303 28.2292 6.79447 28.2961 6.7467 28.3542C6.69291 28.4223 6.62431 28.4773 6.54612 28.5149C6.46794 28.5525 6.38221 28.5719 6.29544 28.5714ZM16.006 31.9999C13.4538 32.0069 10.9378 31.3972 8.67167 30.2228C8.53684 30.1531 8.43521 30.0326 8.38915 29.888C8.34309 29.7433 8.34751 29.6034 8.42605 29.4514C8.50459 29.2994 8.61613 29.2148 8.76075 29.1688C8.90536 29.1227 9.06235 29.136 9.19718 29.2057C12.0757 30.692 15.361 31.1961 18.5525 30.6412C21.744 30.0862 24.6666 28.5026 26.8749 26.1316C29.0831 23.7607 30.456 20.7325 30.7841 17.5086C31.1123 14.2847 30.3777 11.0419 28.6925 8.27432C27.805 6.82187 26.677 5.53107 25.3566 4.45719C25.2398 4.36209 25.1653 4.22467 25.1492 4.07484C25.1332 3.92501 25.1769 3.77491 25.271 3.6572C25.3181 3.5985 25.3764 3.54969 25.4424 3.5136C25.5085 3.4775 25.581 3.45481 25.6559 3.44685C25.7307 3.43888 25.8064 3.44579 25.8785 3.46718C25.9507 3.48857 26.0179 3.52402 26.0764 3.57148C27.4967 4.72719 28.7098 6.1166 29.6635 7.68004C31.1397 10.1057 31.9439 12.8807 31.9935 15.72C32.0432 18.5594 31.3366 21.3608 29.9462 23.8367C28.5558 26.3125 26.5318 28.3736 24.0819 29.8082C21.6321 31.2428 18.8447 31.9993 16.006 31.9999Z" fill="#C21010"/>
<path d="M15.4344 31.4286C15.2929 31.4282 15.1565 31.3753 15.0517 31.28C12.9064 29.3554 11.2716 26.9288 10.2936 24.2172C9.20883 21.611 8.62737 18.8228 8.57996 16.0001C8.58624 13.1711 9.16933 10.3731 10.2936 7.77723C11.3659 5.11632 12.9873 2.7116 15.0517 0.720121C15.1653 0.628892 15.3094 0.584503 15.4546 0.596031C15.5998 0.607558 15.7351 0.674131 15.8328 0.782138C15.9306 0.890145 15.9834 1.03143 15.9805 1.1771C15.9776 1.32277 15.9191 1.46182 15.8172 1.56583C13.8664 3.44425 12.3327 5.71248 11.316 8.22295C10.2636 10.6805 9.72141 13.3264 9.72237 16.0001C9.75904 18.6721 10.3018 21.313 11.3218 23.7829C12.2451 26.3389 13.79 28.6248 15.8172 30.4343C15.9024 30.5118 15.9622 30.6132 15.9888 30.7253C16.0153 30.8374 16.0074 30.955 15.966 31.0625C15.9246 31.17 15.8517 31.2625 15.7569 31.3278C15.662 31.3931 15.5496 31.4283 15.4344 31.4286Z" fill="#C21010"/>
<path d="M16.5768 31.4285C16.4617 31.4282 16.3493 31.3931 16.2544 31.3278C16.1596 31.2625 16.0867 31.17 16.0453 31.0624C16.0039 30.9549 15.996 30.8374 16.0225 30.7253C16.0491 30.6132 16.1089 30.5117 16.1941 30.4342C18.2213 28.6248 19.7662 26.3389 20.6895 23.7829C21.7095 21.313 22.2523 18.6721 22.2889 16C22.2899 13.3264 21.7477 10.6805 20.6953 8.22291C19.6786 5.71244 18.1449 3.44422 16.1941 1.5658C16.1334 1.51703 16.0833 1.45636 16.0469 1.38752C16.0105 1.31867 15.9885 1.24311 15.9824 1.16547C15.9762 1.08782 15.986 1.00974 16.0111 0.936009C16.0362 0.862281 16.0761 0.794465 16.1284 0.736727C16.1806 0.678989 16.2441 0.632547 16.315 0.600255C16.3858 0.567962 16.4625 0.550501 16.5404 0.548942C16.6182 0.547384 16.6956 0.561762 16.7676 0.591193C16.8397 0.620625 16.905 0.664488 16.9596 0.720089C19.0343 2.70881 20.6655 5.11373 21.7463 7.7772C22.8607 10.3751 23.4341 13.173 23.4313 16C23.3839 18.8227 22.8025 21.6109 21.7177 24.2171C20.7332 26.9311 19.0904 29.358 16.9367 31.28C16.8378 31.3701 16.7105 31.4227 16.5768 31.4285Z" fill="#C21010"/>
<path d="M31.4288 16.5715H0.583537C0.432043 16.5715 0.286754 16.5113 0.179632 16.4042C0.0725099 16.297 0.0123291 16.1517 0.0123291 16.0001C0.0123291 15.8486 0.0725099 15.7032 0.179632 15.596C0.286754 15.4889 0.432043 15.4287 0.583537 15.4287H31.4288C31.5802 15.4287 31.7255 15.4889 31.8327 15.596C31.9398 15.7032 32 15.8486 32 16.0001C32 16.1517 31.9398 16.297 31.8327 16.4042C31.7255 16.5113 31.5802 16.5715 31.4288 16.5715ZM29.1439 8.57156H2.86837C2.71687 8.57156 2.57159 8.51136 2.46446 8.4042C2.35734 8.29703 2.29716 8.15169 2.29716 8.00014C2.29716 7.84859 2.35734 7.70324 2.46446 7.59608C2.57159 7.48891 2.71687 7.42871 2.86837 7.42871H29.1439C29.2954 7.42871 29.4407 7.48891 29.5478 7.59608C29.6549 7.70324 29.7151 7.84859 29.7151 8.00014C29.7151 8.15169 29.6549 8.29703 29.5478 8.4042C29.4407 8.51136 29.2954 8.57156 29.1439 8.57156ZM29.1439 24.5715H2.86837C2.71687 24.5715 2.57159 24.5113 2.46446 24.4041C2.35734 24.297 2.29716 24.1516 2.29716 24.0001C2.29716 23.8485 2.35734 23.7032 2.46446 23.596C2.57159 23.4888 2.71687 23.4286 2.86837 23.4286H29.1439C29.2954 23.4286 29.4407 23.4888 29.5478 23.596C29.6549 23.7032 29.7151 23.8485 29.7151 24.0001C29.7151 24.1516 29.6549 24.297 29.5478 24.4041C29.4407 24.5113 29.2954 24.5715 29.1439 24.5715Z" fill="#C21010"/>
<path d="M16.0059 31.4283C15.8544 31.4283 15.7091 31.3681 15.602 31.2609C15.4949 31.1538 15.4347 31.0084 15.4347 30.8569V1.14272C15.4347 0.991164 15.4949 0.845819 15.602 0.738656C15.7091 0.631493 15.8544 0.571289 16.0059 0.571289C16.1574 0.571289 16.3027 0.631493 16.4098 0.738656C16.5169 0.845819 16.5771 0.991164 16.5771 1.14272V30.8569C16.5771 31.0084 16.5169 31.1538 16.4098 31.2609C16.3027 31.3681 16.1574 31.4283 16.0059 31.4283Z" fill="#C21010"/>
</svg>
