<svg width="56" height="56" viewBox="0 0 56 56" fill="none" xmlns="http://www.w3.org/2000/svg">
<path d="M53.6667 22.6566C53.782 19.3168 53.0517 16.002 51.5433 13.02C50.5199 11.7964 49.0997 10.9706 47.53 10.6866C41.0375 10.0975 34.5182 9.85607 28 9.9633C21.5055 9.8512 15.0096 10.0849 8.53998 10.6633C7.26089 10.896 6.07719 11.4959 5.13331 12.39C3.03331 14.3266 2.79998 17.64 2.56665 20.44C2.22811 25.4743 2.22811 30.5256 2.56665 35.56C2.63415 37.1359 2.8688 38.7002 3.26665 40.2266C3.54799 41.4051 4.1172 42.4954 4.92331 43.4C5.87361 44.3414 7.08488 44.9754 8.39998 45.22C13.4305 45.8409 18.4992 46.0982 23.5667 45.99C31.7333 46.1066 38.8966 45.99 47.3666 45.3366C48.714 45.1071 49.9594 44.4722 50.9366 43.5166C51.5899 42.8631 52.0778 42.0632 52.36 41.1833C53.1945 38.6227 53.6043 35.9429 53.5733 33.25C53.6666 31.9433 53.6667 24.0566 53.6667 22.6566ZM22.7266 34.65V20.2066L36.54 27.4633C32.6666 29.61 27.5566 32.0366 22.7266 34.65Z" fill="white"/>
</svg>
